
<svg id="Layer_1" data-name="Layer 1" xmlns="http://www.w3.org/2000/svg" viewBox="0 0 2497.32 592"><defs><style>.cls-1{fill:#1e5bc6;}.cls-2{fill:#fd0202;}</style></defs><g id="Homepage"><g id="Homepage-TW"><g id="logo"><path id="Shape" class="cls-1" d="M196.11,199.93c0-13.25,6.27-26.51,17.25-34.31,12.54-8.57,27.44-12.47,43.12-12.47a77.6,77.6,0,0,1,29.79,5.46V142.23c0-16.37-6.27-25.73-25.09-25.73-6.27,0-11.76,1.56-17.25,3.12a21.34,21.34,0,0,1,.79,7,21.69,21.69,0,0,1-4.71,14c-7,7.79-19.6,7.79-27.44.77-3.92-3.89-6.27-8.57-6.27-14,0-20.27,24.31-33.53,57.24-33.53,25.87,0,42.34,6.24,51,17.16s8.62,25,8.62,45.22v53c0,10.13,6.28,12.47,18.82,14.81h1.57v2.34c0,11.7-10.19,21.05-22.74,21.05h-3.13c-11,0-22-6.24-26.66-16.37-11.76,10.13-26.66,16.37-42.34,16.37-27.44,1.56-51-18.71-52.53-46-.79,0-.79-.78,0-1.56m922.83,41.32a43.79,43.79,0,0,1-5.49-14c-1.56,2.34-3.92,3.9-6.27,6.24-10.19,9.35-23.52,14.81-36.85,14.81a46.92,46.92,0,0,1-37.63-16.37c-12.55-15.6-12.55-35.09-12.55-63.94V141.45c0-10.91-3.92-14.81-14.11-14.81h-6.27v-1.56c-.79-1.56-.79-3.9-.79-6.24,0-12.47,17.25-20.27,26.66-21.83a38.38,38.38,0,0,1,9.41-.78c6.27-.78,13.33,2.34,17.25,7a30.23,30.23,0,0,1,5.49,17.93v46a104.46,104.46,0,0,0,4.7,38.21c3.14,8.58,11.76,13.25,20.39,12.47,9.4.78,18.81-4.67,23.52-12.47,4.7-8.58,6.27-17.93,6.27-27.29V140.68c0-10.92-3.92-14.82-14.11-14.82h-5.49v-.78c-.79-1.56-.79-3.9-.79-6.24,0-12.47,17.25-20.27,26.66-21.83a38.38,38.38,0,0,1,9.41-.78,19.68,19.68,0,0,1,17.25,7,30.23,30.23,0,0,1,5.49,17.93v81.87c0,10.92,3.92,16.37,14.9,16.37h4.7v.78c.78,1.56.78,3.9.78,5.46,0,12.48-17.25,17.93-26.65,19.49a38.42,38.42,0,0,1-9.41.78h0c-6.28.78-11.76-2.34-15.68-7m-526.89-65.5A80.51,80.51,0,0,1,614,116.5c14.11-14.81,34.5-22.61,54.88-22.61a58.87,58.87,0,0,1,45.48,18.72A56.49,56.49,0,0,1,729.27,150a51.13,51.13,0,0,1-4.71,21.05v.78H630.47c0,24.95,19.61,45.22,44.7,45.22h3.92c14.11,0,26.65-6.23,36.06-16.37l.79-1.56,1.56.78a11.56,11.56,0,0,1,5.49,11.7c0,15.59-18,35.08-58,35.08a73.41,73.41,0,0,1-73.7-73.29v-.78m323,74.85c-19.6.78-39.2-7-53.31-20.27a74.38,74.38,0,0,1-22-55.36c-.78-41.32,32.15-75.63,74.49-76.41h2.35a72.87,72.87,0,0,1,54.1,21,75.6,75.6,0,0,1,21.17,55.36c1.57,40.55-30.58,74.85-71.35,76.41-1.57-.78-3.92-.78-5.49-.78Zm280.7-4.68c-6.28-1.56-10.2-5.45-10.2-10.13a22.8,22.8,0,0,1,1.57-7v-.78h.78a24.41,24.41,0,0,0,10.2-4.68c3.92-3.12,5.49-7.79,5.49-19.49V139.9c0-10.14-2.36-14-11-14a21.84,21.84,0,0,0-7.06.78h-1.57v-1.56c-.78-2.34-1.56-3.9-1.56-6.24,0-12.47,14.11-18.71,22.73-21a46.17,46.17,0,0,1,10.2-1.56c11,0,20.38,8.58,22,20.27a43.83,43.83,0,0,1,33.71-21.83c12.55-.78,22.74,8.58,23.53,21.06v1.55a19.72,19.72,0,0,1-19.61,21.06h0c-9.4,0-17.24-6.24-18.81-14.82-7.06,2.34-17.25,10.92-17.25,41.33v36.64c0,11.7,1.57,16.37,5.49,19.49a41.1,41.1,0,0,0,12.54,4.68h.79v.78c1.56,2.34,1.56,4.68,1.56,7,0,4.68-3.92,8.57-9.41,10.13a77.34,77.34,0,0,1-26.65,2.34c-9.41,0-18.82-.78-27.44-3.12m-443.78,0C745,241.25,741,237.36,741,232.68a36.85,36.85,0,0,1,2.35-5.46v-.78h.78a24.41,24.41,0,0,0,10.2-4.68c3.92-3.12,5.48-7.79,5.48-19.49V120.4l-22-.78v-.78a23,23,0,0,1-1.57-7.79,12.35,12.35,0,0,1,12.55-12.48h9.41V90c-.79-14.82,2.35-29.63,10.19-42.11a50.12,50.12,0,0,1,45.47-21.83c28.23,0,51.75,12.48,51.75,33.53a18.9,18.9,0,0,1-18.82,20.27h-.78a19,19,0,0,1-18.82-18.71c0-3.9.79-7.8,3.14-10.92a18.75,18.75,0,0,0-14.11-3.9c-6.28-.78-13.33,2.34-16.47,7.8a36.3,36.3,0,0,0-3.92,20.27V98.57h37.64v.78a23.08,23.08,0,0,1,1.56,7.8c0,7.8-5.49,14-12.54,14.81H796.69v78.75c0,11.7,2.36,16.37,5.49,19.49a52.35,52.35,0,0,0,15.68,4.68h.79v.78a14.69,14.69,0,0,1,1.57,6.24c0,5.46-4.71,8.57-11.76,10.91a91.39,91.39,0,0,1-29,2.34,83.06,83.06,0,0,1-28.23-2.34m-260.31,0c-6.27-1.56-10.19-5.45-10.19-10.13a14.55,14.55,0,0,1,1.57-6.24v-.78h.78A24.31,24.31,0,0,0,493.26,221c3.93-3.12,5.49-7.79,5.49-19.49V140.68c0-10.14-2.35-14-11-14a21.81,21.81,0,0,0-7.06.78h-1.57v-2.34a22.8,22.8,0,0,1-1.57-7c0-12.47,13.33-18.71,22.74-21a39.92,39.92,0,0,1,10.19-1.56c11,0,20.39,8.58,22,19.5a43.8,43.8,0,0,1,33.71-21.84c12.55-.78,23.52,9.36,23.52,21.84v.78a19.74,19.74,0,0,1-19.6,21h0c-9.41,0-17.25-6.24-18.82-14.82-7.84,3.12-17.24,11.7-18,42.11v36.64c0,11.7,1.57,16.37,5.49,19.49a41.1,41.1,0,0,0,12.54,4.68h.79v.78a22.8,22.8,0,0,1,1.57,7c0,4.68-3.92,8.57-9.41,10.13a77.39,77.39,0,0,1-26.66,2.34,74.08,74.08,0,0,1-26.66-2.34m-123.88,0c-6.27-1.56-10.19-5.45-10.19-10.13a12.5,12.5,0,0,1,3.14-5.46v-.78h.78A24.31,24.31,0,0,0,371,221.76c3.92-3.12,5.49-7.79,5.49-19.49V140.68c0-10.14-2.35-14-11-14a21.78,21.78,0,0,0-7,.78h-1.57v-2.34a22.51,22.51,0,0,1-1.57-7c0-12.47,13.33-18.71,22.74-21a39.85,39.85,0,0,1,10.19-1.56c11,0,20.39,8.58,21.95,19.5a43.83,43.83,0,0,1,33.72-21.84c12.54-.78,22.74,8.58,23.52,21.06v1.56a19.71,19.71,0,0,1-19.6,21H447c-9.41,0-17.25-6.24-18.82-14.82-7.06,2.34-17.25,10.92-17.25,41.33v36.64c0,11.7,1.57,16.37,5.49,19.49A41.1,41.1,0,0,0,429,224.1h.79v.78a22.77,22.77,0,0,1,1.56,7c0,4.68-3.92,8.57-9.4,10.13a77.41,77.41,0,0,1-26.66,2.34A69.15,69.15,0,0,1,367,242.81M879.8,166.4c0,40.55,17.25,57.7,34.5,57.7C933.9,224.1,948,207,948,172.64c.78-14.81-3.14-28.85-10.2-41.32A29.33,29.33,0,0,0,912,116.5c-19.6,0-32.15,17.94-32.15,49.9M262,174.2c-16.47,0-27.44,7.8-27.44,22.61-.79,12.48,9.4,23.39,22,24.17h2.35c10.19-.78,19.6-4.68,25.88-12.47V188.24a9.6,9.6,0,0,0-5.49-8.58A52.35,52.35,0,0,0,263.54,175m420.25-24.17c3.14,0,3.92-.78,3.92-1.56.78-1.56.78-3.12.78-5.46a26.75,26.75,0,0,0-28.22-26.51h0c-21.17,0-29.8,17.16-31.36,33.53ZM32.24,221c-19.6-21-30.58-49.12-29-78-.78-28.06,9.41-56.13,29-76.4A91.18,91.18,0,0,1,98.88,37c45.48,0,76.84,31.18,76.84,58.47.79,13.26-8.62,24.17-21.95,25.73h0A25.45,25.45,0,0,1,137.3,115c-4.7-3.9-7.05-10.14-7.05-16.38s3.13-12.47,7.84-17.15C130.25,68.94,116.92,61.15,102,61.93A44.22,44.22,0,0,0,63.6,84.54c-11,17.93-15.68,38.2-14.9,59.25-.78,20.28,3.93,40.55,14.9,57.7,7.84,13.25,22.74,21.83,38.42,22.61,14.9.78,29-6.24,36.07-18.71a24.37,24.37,0,0,1,0-34.31,23.3,23.3,0,0,1,32.14.78,22.94,22.94,0,0,1,6.28,18.71c0,27.29-32.15,58.48-76.84,58.48A87.44,87.44,0,0,1,32.24,221"/><path id="Path" class="cls-1" d="M148.89,452.48v14.6c0,9.21,7.92,8.45,7.92,8.45h74.46c33.26.76,45.14-37.64,45.14-37.64,5.55-12.29-4.75-10.76-4.75-10.76H224.93a10.51,10.51,0,0,0-11.88,7.68c-4,13.83-23,13.83-23,13.83H156.81C146.52,447.87,148.89,452.48,148.89,452.48Z"/><path id="Path-2" data-name="Path" class="cls-1" d="M1284.39,323.5H1072.14c-7.08,0-7.87,5.84-7.87,5.84v12.52c-.78,3.34,2.36,7.52,5.51,7.52h215.39c9.44,0,8.65-5.85,8.65-5.85V331.85C1293.82,325.17,1284.39,323.5,1284.39,323.5Z"/><path id="Path-3" data-name="Path" class="cls-1" d="M148.89,510.51v14.72c0,9.3,7.91,8.52,7.91,8.52h117c34,.78,52.16-51.13,52.16-51.13,3.17-8.52-6.32-7-6.32-7H268.24c-6.33,0-21.34,21.69-21.34,21.69-9.49,12.4-57.7,9.3-57.7,9.3H156.8C146.52,506.64,148.89,510.51,148.89,510.51Z"/><path id="Path-4" data-name="Path" class="cls-1" d="M819.1,426.82h67.52C901.36,428.4,899,412.64,899,412.64c0-13.4-7.76-11-7.76-11-10.08,0-3.88-6.3-3.88-6.3l9.32-22.86c7.76-12.61-8.54-9.45-8.54-9.45-10.86,0-7-3.94-7-3.94l11.64-23.65c5.43-8.67-3.11-8.67-3.11-8.67H840.06C832.3,328.31,814.45,363,814.45,363c-9.31,15-1.55,14.18-1.55,14.18h17.84l-21,40.2C804.36,429.19,819.1,426.82,819.1,426.82Z"/><path id="Path-5" data-name="Path" class="cls-1" d="M494.6,499.25c-20.39,0-25.09-9.47-25.09-9.47-8.63-10.26,15.68-52.09,15.68-52.09,7.84-11.84-3.14-11.05-3.14-11.05H438.14c-15.69,0-15.69,5.52-15.69,5.52-3.92,7.89-19.6,33.15-19.6,33.15-8.63-24.47-62-56.83-62-56.83-10.19-6.31,6.28-6.31,6.28-6.31h74.5a6.65,6.65,0,0,0,7.84-6.31V384.81c0-11.05-9.41-9.48-9.41-9.48H236.59a7.06,7.06,0,0,0-7.06,7.11h0v14.2c0,7.11,3.92,6.32,3.92,6.32h24.31c2.35-.79,4.71,1.58,5.49,4v2.36c0,7.9,11.77,11.84,11.77,11.84,8.62,5.53,17.25,11.05,25.09,17.37,54.9,37.09,40,101,40,101a5.37,5.37,0,0,1-3.14,6.31H249.92c-9.41,0-7.84,7.11-7.84,7.11v15c0,8.69,8.62,7.9,8.62,7.9H371.48c39.21,0,39.21-32.36,39.21-32.36V507.14a65.77,65.77,0,0,0,43.13,22.1c11.76,2.37,61.17,1.58,76.07,1.58H595s40.78,2.37,60.39-51.3c0,0,4.71-5.53-4.71-5.53h-64.3a42.39,42.39,0,0,1-38.43,24.47H525.19Z"/><path id="Path-6" data-name="Path" class="cls-1" d="M931.72,499.21H900.44a42.38,42.38,0,0,1-38.32-23.67H798c-8.6,0-4.69,5.35-4.69,5.35,19.55,51.92,89.94,49.63,89.94,49.63H927c16.42,0,14.08-6.11,14.08-6.11v-16C940.33,497.69,931.72,499.21,931.72,499.21Z"/><path id="Shape-2" data-name="Shape" class="cls-1" d="M536.85,444.3v16.41c0,7.82,8.64,7,8.64,7H676.57c11,0,9.42,6.25,9.42,6.25v65.64a6.62,6.62,0,0,1-6.28,7.82H629.48c-9.42,0-8.64,5.47-8.64,5.47V567c0,9.38,11,8.6,11,8.6H722.1c33,0,33-23.44,33-23.44V475.56c0-8.6,10.21-8.6,10.21-8.6H964.66c11,0,7.84,7,7.84,7v93.78c0,10.16,8.64,7.81,8.64,7.81H1029c12.56,0,11-7.81,11-7.81V442l16.49-37.51c3.92-9.38-3.14-8.6-3.14-8.6h-26.69L1054.93,338c4.71-7-3.14-6.25-3.14-6.25h-10.21c-7.85,1.56-6.28-3.13-6.28-3.13l3.93-7c2.35-7.82-3.14-7.82-3.14-7.82H981.14c-10.2,2.35-12.56,18.76-12.56,18.76H945c-9.42,0-7.06,5.47-7.06,5.47v22.66c0,6.25,10.2,7,10.2,7h25.9l-30.61,60.17c-3.92,10.16-21.19,10.16-21.19,10.16H762.92c-15.7-3.13-1.57-10.16-1.57-10.16l29-10.16c12.56-4.69,11.78-10.16,11.78-10.16V345.83c0-12.5-10.21-10.94-10.21-10.94H752.72l4.71-14.06c-.79-2.35-2.36-5.47-4.71-7h-55c-9.42,0-9.42,12.51-9.42,12.51-1.57,6.25-8.64,10.16-14.91,8.59H644.39c-10.2,0-9.42,8.6-9.42,8.6V402.1a17.64,17.64,0,0,0,14.13,17.19l30.61,10.16c14.92,7.82-3.14,10.16-3.14,10.16H544.7C537.64,439.61,536.85,444.3,536.85,444.3Zm213.51-76.58v23.44c-15.7,15.63-40,18-58.09,3.91h23.55a9.17,9.17,0,0,0,7.07-8.6s3.14-9.38-9.42-9.38H688.35v-9.37Z"/><path id="Path-7" data-name="Path" class="cls-1" d="M547.1,426.82h67.39c14.72,1.58,12.4-14.18,12.4-14.18,0-13.4-7.75-11-7.75-11-10.07,0-3.87-6.3-3.87-6.3l10.07-22.86c7.75-12.61-8.52-9.45-8.52-9.45-10.85,0-7-3.94-7-3.94l11.62-23.65c5.42-8.67-3.88-8.67-3.88-8.67H568c-7.74,1.58-25.56,36.26-25.56,36.26-9.3,15-1.55,14.18-1.55,14.18h17.82l-20.92,40.2C533.15,429.19,547.1,426.82,547.1,426.82Z"/><path id="Shape-3" data-name="Shape" class="cls-1" d="M1265.7,359.43H1089.79c-11,0-9.39,7-9.39,7v33.43c0,8.56,5.48,8.56,5.48,8.56,31.27,21.77,92.26,21.77,92.26,21.77A190.25,190.25,0,0,0,1268.05,410c3.91-.77,7-4.66,6.26-8.55V365.65c0-3.11-2.35-6.22-5.48-6.22C1267.27,358.65,1266.49,359.43,1265.7,359.43Zm-48.47,33.44c-25,12.44-54.73,13.22-79.75.77v-8.55h79.75Z"/><path id="Shape-4" data-name="Shape" class="cls-1" d="M1175.88,572.59c88.27,0,118-46.07,118-46.07v-82c0-7-8.6-7.81-8.6-7.81h-214c-7.81,0-7,7.81-7,7.81v84.33C1086.05,566.34,1175.88,572.59,1175.88,572.59Zm34.37-107H1236V482h-25.78Zm-89.83,0H1147V482h-26.56Zm0,42.95H1147V525h63.27v-16.4H1236V525s-48.43,39-115.61,0Z"/><path id="Path-8" data-name="Path" class="cls-1" d="M386.43,322.56c5.47-8.77-2.35-8.77-2.35-8.77H324.65c-6.25,0-10.16,4-15.64,14.35-2.34,5.58-7.82,9.56-14.07,8.77H162c-14.86,0-13.3,20.72-13.3,20.72V393.5c0,12.75,6.26,10.36,6.26,10.36h55.52c3.13.8,6.26-1.59,7-5.58,0-.8,0-2.39-.78-3.19V372.78c0-3.19,1.56-5.58,4.69-6.38H433.35c8.6,0,6.26,6.38,6.26,6.38v24.7c0,9.57,7.82,6.38,7.82,6.38h52.39c9.38,0,7.82-5.58,7.82-5.58v-51c.78-5.58-3.91-11.16-9.38-12H389.56c-10.95,0-6.26-7.17-6.26-7.17Z"/><path id="Path-9" data-name="Path" class="cls-2" d="M1732.41,18.52a4.32,4.32,0,0,1,3.93-2.35c2.35,0,3.92,2.35,3.92,4.7h0a6.76,6.76,0,0,1-2.35,4.7,413.48,413.48,0,0,0-97.38,270c0,115.82,40.84,196.42,97.38,267.64a6.74,6.74,0,0,1,2.35,4.69c0,2.35-1.57,3.92-3.92,4.7h0a4.3,4.3,0,0,1-3.93-2.35L1491.33,333.9a50.69,50.69,0,0,1-9.42-70.43,53.54,53.54,0,0,1,9.42-9.39L1732.41,18.52"/><path id="Path-10" data-name="Path" class="cls-1" d="M1916.33,0c-94,0-130.78,135.65-130.78,297.18S1822.36,592,1916.33,592c56.38,0,104.93-33.72,104.93-61.16a24.37,24.37,0,0,0-7-17.25,108.08,108.08,0,0,1-37.59-76.06c0-40.77,32.1-74.49,72.82-76.84,47.77,0,76,38.42,76,87.82a208.06,208.06,0,0,1-41.5,117.61c-.78,1.57-1.57,2.36-.78,3.93,0,2.35,1.56,3.92,3.91,4.7h0a6.74,6.74,0,0,0,4.7-2.35l240.41-236a51,51,0,0,0,9.4-70.57,53.43,53.43,0,0,0-9.4-9.41L2091,19.6q-1.17-2.36-4.7-2.35c-2.35,0-3.92,1.57-3.92,4.7,0,1.57.79,3.14.79,3.93a209.38,209.38,0,0,1,41.5,116.83c0,49.4-28.19,87.82-76,87.82-40.72-2.36-72.83-36.07-72.83-76.85a108.08,108.08,0,0,1,37.59-76.05,23.08,23.08,0,0,0,7-17.25C2021.26,33.72,1972.71,0,1916.33,0"/></g></g></g></svg>